999
    DOGA-L series Parts Assember DXF export
999
        03/02/02 Version
0
SECTION
2
TABLES
0
TABLE
2
LAYER
70
3
0
LAYER
2
_BodyM
70
0
62
7
0
LAYER
2
_Glass
70
0
62
5
0
LAYER
2
_BodyD
70
0
62
7
0
ENDTAB
0
ENDSEC
0
SECTION
2
BLOCKS
0
ENDSEC
0
SECTION
2
ENTITIES
0
POLYLINE
8
0
62
0
66
1
10
0.0
20
0.0
30
0.0
70
64
71
88
72
108
0
VERTEX
8
0
62
0
10
0.910000
20
0.000000
30
-0.060000
70
192
0
VERTEX
8
0
62
0
10
0.745000
20
0.015000
30
0.015000
70
192
0
VERTEX
8
0
62
0
10
0.745000
20
-0.015000
30
0.015000
70
192
0
VERTEX
8
0
62
0
10
0.745000
20
-0.060000
30
-0.030000
70
192
0
VERTEX
8
0
62
0
10
0.505000
20
-0.045000
30
0.015000
70
192
0
VERTEX
8
0
62
0
10
0.505000
20
-0.090000
30
-0.030000
70
192
0
VERTEX
8
0
62
0
10
0.505000
20
0.015000
30
0.090000
70
192
0
VERTEX
8
0
62
0
10
0.505000
20
-0.015000
30
0.090000
70
192
0
VERTEX
8
0
62
0
10
0.265000
20
0.030000
30
0.120000
70
192
0
VERTEX
8
0
62
0
10
0.265000
20
-0.030000
30
0.120000
70
192
0
VERTEX
8
0
62
0
10
0.265000
20
-0.120000
30
-0.030000
70
192
0
VERTEX
8
0
62
0
10
0.265000
20
-0.075000
30
0.015000
70
192
0
VERTEX
8
0
62
0
10
0.745000
20
-0.075000
30
-0.060000
70
192
0
VERTEX
8
0
62
0
10
0.505000
20
-0.090000
30
-0.060000
70
192
0
VERTEX
8
0
62
0
10
0.265000
20
-0.120000
30
-0.060000
70
192
0
VERTEX
8
0
62
0
10
0.745000
20
0.000000
30
-0.090000
70
192
0
VERTEX
8
0
62
0
10
0.505000
20
-0.030000
30
-0.120000
70
192
0
VERTEX
8
0
62
0
10
0.505000
20
0.030000
30
-0.120000
70
192
0
VERTEX
8
0
62
0
10
0.265000
20
-0.060000
30
-0.120000
70
192
0
VERTEX
8
0
62
0
10
0.265000
20
0.060000
30
-0.120000
70
192
0
VERTEX
8
0
62
0
10
-0.155000
20
-0.075000
30
0.090000
70
192
0
VERTEX
8
0
62
0
10
-0.155000
20
-0.159000
30
0.054000
70
192
0
VERTEX
8
0
62
0
10
0.040000
20
-0.117000
30
0.012000
70
192
0
VERTEX
8
0
62
0
10
0.040000
20
-0.075000
30
0.030000
70
192
0
VERTEX
8
0
62
0
10
-0.155000
20
-0.195000
30
-0.030000
70
192
0
VERTEX
8
0
62
0
10
0.040000
20
-0.135000
30
-0.030000
70
192
0
VERTEX
8
0
62
0
10
-0.155000
20
-0.159000
30
-0.114000
70
192
0
VERTEX
8
0
62
0
10
0.040000
20
-0.117000
30
-0.072000
70
192
0
VERTEX
8
0
62
0
10
-0.155000
20
-0.075000
30
-0.150000
70
192
0
VERTEX
8
0
62
0
10
0.040000
20
-0.075000
30
-0.090000
70
192
0
VERTEX
8
0
62
0
10
-0.410000
20
-0.075000
30
0.120000
70
192
0
VERTEX
8
0
62
0
10
-0.410000
20
-0.180000
30
0.075000
70
192
0
VERTEX
8
0
62
0
10
-0.410000
20
-0.225000
30
-0.030000
70
192
0
VERTEX
8
0
62
0
10
-0.410000
20
-0.180000
30
-0.135000
70
192
0
VERTEX
8
0
62
0
10
-0.410000
20
-0.075000
30
-0.180000
70
192
0
VERTEX
8
0
62
0
10
-0.620000
20
-0.075000
30
0.120000
70
192
0
VERTEX
8
0
62
0
10
-0.620000
20
-0.180000
30
0.075000
70
192
0
VERTEX
8
0
62
0
10
-0.620000
20
-0.225000
30
-0.030000
70
192
0
VERTEX
8
0
62
0
10
-0.620000
20
-0.180000
30
-0.135000
70
192
0
VERTEX
8
0
62
0
10
-0.620000
20
-0.075000
30
-0.180000
70
192
0
VERTEX
8
0
62
0
10
0.100000
20
-0.035000
30
0.120000
70
192
0
VERTEX
8
0
62
0
10
0.040000
20
0.075000
30
-0.090000
70
192
0
VERTEX
8
0
62
0
10
0.100000
20
0.035000
30
0.120000
70
192
0
VERTEX
8
0
62
0
10
-0.155000
20
0.000000
30
-0.120000
70
192
0
VERTEX
8
0
62
0
10
-0.410000
20
0.000000
30
-0.150000
70
192
0
VERTEX
8
0
62
0
10
-0.620000
20
0.000000
30
-0.150000
70
192
0
VERTEX
8
0
62
0
10
-0.410000
20
0.000000
30
0.087000
70
192
0
VERTEX
8
0
62
0
10
-0.155000
20
0.000000
30
0.057000
70
192
0
VERTEX
8
0
62
0
10
-0.620000
20
0.000000
30
0.087000
70
192
0
VERTEX
8
0
62
0
10
0.745000
20
0.060000
30
-0.030000
70
192
0
VERTEX
8
0
62
0
10
0.505000
20
0.045000
30
0.015000
70
192
0
VERTEX
8
0
62
0
10
0.505000
20
0.090000
30
-0.030000
70
192
0
VERTEX
8
0
62
0
10
0.265000
20
0.075000
30
0.015000
70
192
0
VERTEX
8
0
62
0
10
0.265000
20
0.120000
30
-0.030000
70
192
0
VERTEX
8
0
62
0
10
0.745000
20
0.075000
30
-0.060000
70
192
0
VERTEX
8
0
62
0
10
0.505000
20
0.090000
30
-0.060000
70
192
0
VERTEX
8
0
62
0
10
0.265000
20
0.120000
30
-0.060000
70
192
0
VERTEX
8
0
62
0
10
0.040000
20
0.075000
30
0.030000
70
192
0
VERTEX
8
0
62
0
10
0.040000
20
0.117000
30
0.012000
70
192
0
VERTEX
8
0
62
0
10
-0.155000
20
0.159000
30
0.054000
70
192
0
VERTEX
8
0
62
0
10
-0.155000
20
0.075000
30
0.090000
70
192
0
VERTEX
8
0
62
0
10
0.040000
20
0.135000
30
-0.030000
70
192
0
VERTEX
8
0
62
0
10
-0.155000
20
0.195000
30
-0.030000
70
192
0
VERTEX
8
0
62
0
10
0.040000
20
0.117000
30
-0.072000
70
192
0
VERTEX
8
0
62
0
10
-0.155000
20
0.159000
30
-0.114000
70
192
0
VERTEX
8
0
62
0
10
-0.155000
20
0.075000
30
-0.150000
70
192
0
VERTEX
8
0
62
0
10
-0.410000
20
0.180000
30
0.075000
70
192
0
VERTEX
8
0
62
0
10
-0.410000
20
0.075000
30
0.120000
70
192
0
VERTEX
8
0
62
0
10
-0.410000
20
0.225000
30
-0.030000
70
192
0
VERTEX
8
0
62
0
10
-0.410000
20
0.180000
30
-0.135000
70
192
0
VERTEX
8
0
62
0
10
-0.410000
20
0.075000
30
-0.180000
70
192
0
VERTEX
8
0
62
0
10
-0.620000
20
0.180000
30
0.075000
70
192
0
VERTEX
8
0
62
0
10
-0.620000
20
0.075000
30
0.120000
70
192
0
VERTEX
8
0
62
0
10
-0.620000
20
0.225000
30
-0.030000
70
192
0
VERTEX
8
0
62
0
10
-0.620000
20
0.180000
30
-0.135000
70
192
0
VERTEX
8
0
62
0
10
-0.620000
20
0.075000
30
-0.180000
70
192
0
VERTEX
8
0
62
0
10
-0.710000
20
0.135000
30
0.030000
70
192
0
VERTEX
8
0
62
0
10
-0.710000
20
0.075000
30
0.056000
70
192
0
VERTEX
8
0
62
0
10
-0.710000
20
0.161000
30
-0.030000
70
192
0
VERTEX
8
0
62
0
10
-0.710000
20
0.135000
30
-0.090000
70
192
0
VERTEX
8
0
62
0
10
-0.710000
20
0.075000
30
-0.116000
70
192
0
VERTEX
8
0
62
0
10
-0.710000
20
0.000000
30
-0.086000
70
192
0
VERTEX
8
0
62
0
10
-0.710000
20
0.000000
30
0.023000
70
192
0
VERTEX
8
0
62
0
10
-0.710000
20
-0.135000
30
0.030000
70
192
0
VERTEX
8
0
62
0
10
-0.710000
20
-0.075000
30
0.056000
70
192
0
VERTEX
8
0
62
0
10
-0.710000
20
-0.161000
30
-0.030000
70
192
0
VERTEX
8
0
62
0
10
-0.710000
20
-0.135000
30
-0.090000
70
192
0
VERTEX
8
0
62
0
10
-0.710000
20
-0.075000
30
-0.116000
70
192
0
VERTEX
8
_BodyM
62
7
10
0.0
20
0.0
30
0.0
70
128
71
1
72
2
73
3
0
VERTEX
8
_BodyM
62
7
10
0.0
20
0.0
30
0.0
70
128
71
4
72
1
73
3
0
VERTEX
8
_BodyM
62
7
10
0.0
20
0.0
30
0.0
70
128
71
4
72
3
73
5
0
VERTEX
8
_BodyM
62
7
10
0.0
20
0.0
30
0.0
70
128
71
5
72
6
73
4
0
VERTEX
8
_Glass
62
5
10
0.0
20
0.0
30
0.0
70
128
71
7
72
8
73
3
74
2
0
VERTEX
8
_Glass
62
5
10
0.0
20
0.0
30
0.0
70
128
71
8
72
5
73
3
0
VERTEX
8
_Glass
62
5
10
0.0
20
0.0
30
0.0
70
128
71
8
72
7
73
9
74
10
0
VERTEX
8
_Glass
62
5
10
0.0
20
0.0
30
0.0
70
128
71
5
72
8
73
10
0
VERTEX
8
_BodyM
62
7
10
0.0
20
0.0
30
0.0
70
128
71
11
72
6
73
5
74
12
0
VERTEX
8
_BodyM
62
7
10
0.0
20
0.0
30
0.0
70
128
71
12
72
5
73
10
0
VERTEX
8
_BodyM
62
7
10
0.0
20
0.0
30
0.0
70
128
71
13
72
4
73
6
0
VERTEX
8
_BodyM
62
7
10
0.0
20
0.0
30
0.0
70
128
71
6
72
14
73
13
0
VERTEX
8
_BodyM
62
7
10
0.0
20
0.0
30
0.0
70
128
71
6
72
11
73
15
74
14
0
VERTEX
8
_BodyM
62
7
10
0.0
20
0.0
30
0.0
70
128
71
1
72
4
73
13
0
VERTEX
8
_BodyM
62
7
10
0.0
20
0.0
30
0.0
70
128
71
13
72
16
73
1
0
VERTEX
8
_BodyM
62
7
10
0.0
20
0.0
30
0.0
70
128
71
14
72
16
73
13
0
VERTEX
8
_BodyM
62
7
10
0.0
20
0.0
30
0.0
70
128
71
17
72
16
73
14
0
VERTEX
8
_BodyM
62
7
10
0.0
20
0.0
30
0.0
70
128
71
17
72
18
73
16
0
VERTEX
8
_BodyM
62
7
10
0.0
20
0.0
30
0.0
70
128
71
17
72
14
73
15
74
19
0
VERTEX
8
_BodyM
62
7
10
0.0
20
0.0
30
0.0
70
128
71
20
72
18
73
17
74
19
0
VERTEX
8
_BodyD
62
7
10
0.0
20
0.0
30
0.0
70
128
71
21
72
22
73
23
74
24
0
VERTEX
8
_BodyD
62
7
10
0.0
20
0.0
30
0.0
70
128
71
22
72
25
73
26
74
23
0
VERTEX
8
_BodyD
62
7
10
0.0
20
0.0
30
0.0
70
128
71
25
72
27
73
28
74
26
0
VERTEX
8
_BodyD
62
7
10
0.0
20
0.0
30
0.0
70
128
71
27
72
29
73
30
74
28
0
VERTEX
8
_BodyD
62
7
10
0.0
20
0.0
30
0.0
70
128
71
31
72
32
73
22
74
21
0
VERTEX
8
_BodyD
62
7
10
0.0
20
0.0
30
0.0
70
128
71
32
72
33
73
25
74
22
0
VERTEX
8
_BodyD
62
7
10
0.0
20
0.0
30
0.0
70
128
71
33
72
34
73
27
74
25
0
VERTEX
8
_BodyD
62
7
10
0.0
20
0.0
30
0.0
70
128
71
34
72
35
73
29
74
27
0
VERTEX
8
_BodyD
62
7
10
0.0
20
0.0
30
0.0
70
128
71
36
72
37
73
32
74
31
0
VERTEX
8
_BodyD
62
7
10
0.0
20
0.0
30
0.0
70
128
71
37
72
38
73
33
74
32
0
VERTEX
8
_BodyD
62
7
10
0.0
20
0.0
30
0.0
70
128
71
38
72
39
73
34
74
33
0
VERTEX
8
_BodyD
62
7
10
0.0
20
0.0
30
0.0
70
128
71
39
72
40
73
35
74
34
0
VERTEX
8
_BodyM
62
7
10
0.0
20
0.0
30
0.0
70
128
71
41
72
24
73
12
74
10
0
VERTEX
8
_BodyM
62
7
10
0.0
20
0.0
30
0.0
70
128
71
26
72
15
73
11
0
VERTEX
8
_BodyM
62
7
10
0.0
20
0.0
30
0.0
70
128
71
26
72
28
73
15
0
VERTEX
8
_BodyM
62
7
10
0.0
20
0.0
30
0.0
70
128
71
28
72
19
73
15
0
VERTEX
8
_BodyM
62
7
10
0.0
20
0.0
30
0.0
70
128
71
28
72
30
73
19
0
VERTEX
8
_BodyM
62
7
10
0.0
20
0.0
30
0.0
70
128
71
19
72
30
73
42
74
20
0
VERTEX
8
_BodyM
62
7
10
0.0
20
0.0
30
0.0
70
128
71
10
72
9
73
43
74
41
0
VERTEX
8
_BodyD
62
7
10
0.0
20
0.0
30
0.0
70
128
71
30
72
29
73
44
0
VERTEX
8
_BodyD
62
7
10
0.0
20
0.0
30
0.0
70
128
71
44
72
29
73
35
74
45
0
VERTEX
8
_BodyD
62
7
10
0.0
20
0.0
30
0.0
70
128
71
45
72
35
73
40
74
46
0
VERTEX
8
_BodyM
62
7
10
0.0
20
0.0
30
0.0
70
128
71
44
72
42
73
30
0
VERTEX
8
_BodyD
62
7
10
0.0
20
0.0
30
0.0
70
128
71
47
72
31
73
21
74
48
0
VERTEX
8
_BodyD
62
7
10
0.0
20
0.0
30
0.0
70
128
71
49
72
36
73
31
74
47
0
VERTEX
8
_BodyM
62
7
10
0.0
20
0.0
30
0.0
70
128
71
41
72
43
73
48
0
VERTEX
8
_BodyM
62
7
10
0.0
20
0.0
30
0.0
70
128
71
24
72
41
73
48
0
VERTEX
8
_BodyD
62
7
10
0.0
20
0.0
30
0.0
70
128
71
24
72
48
73
21
0
VERTEX
8
_BodyM
62
7
10
0.0
20
0.0
30
0.0
70
128
71
2
72
1
73
50
0
VERTEX
8
_BodyM
62
7
10
0.0
20
0.0
30
0.0
70
128
71
51
72
2
73
50
0
VERTEX
8
_BodyM
62
7
10
0.0
20
0.0
30
0.0
70
128
71
50
72
52
73
51
0
VERTEX
8
_Glass
62
5
10
0.0
20
0.0
30
0.0
70
128
71
2
72
51
73
7
0
VERTEX
8
_Glass
62
5
10
0.0
20
0.0
30
0.0
70
128
71
9
72
7
73
51
0
VERTEX
8
_BodyM
62
7
10
0.0
20
0.0
30
0.0
70
128
71
53
72
51
73
52
74
54
0
VERTEX
8
_BodyM
62
7
10
0.0
20
0.0
30
0.0
70
128
71
9
72
51
73
53
0
VERTEX
8
_BodyM
62
7
10
0.0
20
0.0
30
0.0
70
128
71
52
72
50
73
55
0
VERTEX
8
_BodyM
62
7
10
0.0
20
0.0
30
0.0
70
128
71
55
72
56
73
52
0
VERTEX
8
_BodyM
62
7
10
0.0
20
0.0
30
0.0
70
128
71
56
72
57
73
54
74
52
0
VERTEX
8
_BodyM
62
7
10
0.0
20
0.0
30
0.0
70
128
71
55
72
50
73
1
0
VERTEX
8
_BodyM
62
7
10
0.0
20
0.0
30
0.0
70
128
71
1
72
16
73
55
0
VERTEX
8
_BodyM
62
7
10
0.0
20
0.0
30
0.0
70
128
71
55
72
16
73
56
0
VERTEX
8
_BodyM
62
7
10
0.0
20
0.0
30
0.0
70
128
71
56
72
16
73
18
0
VERTEX
8
_BodyM
62
7
10
0.0
20
0.0
30
0.0
70
128
71
20
72
57
73
56
74
18
0
VERTEX
8
_BodyD
62
7
10
0.0
20
0.0
30
0.0
70
128
71
58
72
59
73
60
74
61
0
VERTEX
8
_BodyD
62
7
10
0.0
20
0.0
30
0.0
70
128
71
59
72
62
73
63
74
60
0
VERTEX
8
_BodyD
62
7
10
0.0
20
0.0
30
0.0
70
128
71
62
72
64
73
65
74
63
0
VERTEX
8
_BodyD
62
7
10
0.0
20
0.0
30
0.0
70
128
71
64
72
42
73
66
74
65
0
VERTEX
8
_BodyD
62
7
10
0.0
20
0.0
30
0.0
70
128
71
61
72
60
73
67
74
68
0
VERTEX
8
_BodyD
62
7
10
0.0
20
0.0
30
0.0
70
128
71
60
72
63
73
69
74
67
0
VERTEX
8
_BodyD
62
7
10
0.0
20
0.0
30
0.0
70
128
71
63
72
65
73
70
74
69
0
VERTEX
8
_BodyD
62
7
10
0.0
20
0.0
30
0.0
70
128
71
65
72
66
73
71
74
70
0
VERTEX
8
_BodyD
62
7
10
0.0
20
0.0
30
0.0
70
128
71
68
72
67
73
72
74
73
0
VERTEX
8
_BodyD
62
7
10
0.0
20
0.0
30
0.0
70
128
71
67
72
69
73
74
74
72
0
VERTEX
8
_BodyD
62
7
10
0.0
20
0.0
30
0.0
70
128
71
69
72
70
73
75
74
74
0
VERTEX
8
_BodyD
62
7
10
0.0
20
0.0
30
0.0
70
128
71
70
72
71
73
76
74
75
0
VERTEX
8
_BodyM
62
7
10
0.0
20
0.0
30
0.0
70
128
71
9
72
53
73
58
74
43
0
VERTEX
8
_BodyM
62
7
10
0.0
20
0.0
30
0.0
70
128
71
54
72
57
73
62
0
VERTEX
8
_BodyM
62
7
10
0.0
20
0.0
30
0.0
70
128
71
57
72
64
73
62
0
VERTEX
8
_BodyM
62
7
10
0.0
20
0.0
30
0.0
70
128
71
57
72
20
73
64
0
VERTEX
8
_BodyM
62
7
10
0.0
20
0.0
30
0.0
70
128
71
20
72
42
73
64
0
VERTEX
8
_BodyD
62
7
10
0.0
20
0.0
30
0.0
70
128
71
44
72
66
73
42
0
VERTEX
8
_BodyD
62
7
10
0.0
20
0.0
30
0.0
70
128
71
45
72
71
73
66
74
44
0
VERTEX
8
_BodyD
62
7
10
0.0
20
0.0
30
0.0
70
128
71
46
72
76
73
71
74
45
0
VERTEX
8
_BodyD
62
7
10
0.0
20
0.0
30
0.0
70
128
71
48
72
61
73
68
74
47
0
VERTEX
8
_BodyD
62
7
10
0.0
20
0.0
30
0.0
70
128
71
47
72
68
73
73
74
49
0
VERTEX
8
_BodyM
62
7
10
0.0
20
0.0
30
0.0
70
128
71
48
72
43
73
58
0
VERTEX
8
_BodyD
62
7
10
0.0
20
0.0
30
0.0
70
128
71
61
72
48
73
58
0
VERTEX
8
_BodyM
62
7
10
0.0
20
0.0
30
0.0
70
128
71
53
72
59
73
58
0
VERTEX
8
_BodyM
62
7
10
0.0
20
0.0
30
0.0
70
128
71
62
72
53
73
54
0
VERTEX
8
_BodyM
62
7
10
0.0
20
0.0
30
0.0
70
128
71
62
72
59
73
53
0
VERTEX
8
_BodyM
62
7
10
0.0
20
0.0
30
0.0
70
128
71
26
72
11
73
12
0
VERTEX
8
_BodyM
62
7
10
0.0
20
0.0
30
0.0
70
128
71
12
72
24
73
23
0
VERTEX
8
_BodyM
62
7
10
0.0
20
0.0
30
0.0
70
128
71
23
72
26
73
12
0
VERTEX
8
_BodyM
62
7
10
0.0
20
0.0
30
0.0
70
128
71
73
72
72
73
77
74
78
0
VERTEX
8
_BodyM
62
7
10
0.0
20
0.0
30
0.0
70
128
71
77
72
72
73
74
74
79
0
VERTEX
8
_BodyM
62
7
10
0.0
20
0.0
30
0.0
70
128
71
80
72
79
73
74
74
75
0
VERTEX
8
_BodyM
62
7
10
0.0
20
0.0
30
0.0
70
128
71
80
72
75
73
76
74
81
0
VERTEX
8
_BodyM
62
7
10
0.0
20
0.0
30
0.0
70
128
71
81
72
76
73
46
74
82
0
VERTEX
8
_BodyM
62
7
10
0.0
20
0.0
30
0.0
70
128
71
78
72
73
73
72
74
77
0
VERTEX
8
_BodyM
62
7
10
0.0
20
0.0
30
0.0
70
128
71
83
72
49
73
73
74
78
0
VERTEX
8
_BodyM
62
7
10
0.0
20
0.0
30
0.0
70
128
71
84
72
37
73
36
74
85
0
VERTEX
8
_BodyM
62
7
10
0.0
20
0.0
30
0.0
70
128
71
85
72
36
73
49
74
83
0
VERTEX
8
_BodyM
62
7
10
0.0
20
0.0
30
0.0
70
128
71
86
72
38
73
37
74
84
0
VERTEX
8
_BodyM
62
7
10
0.0
20
0.0
30
0.0
70
128
71
87
72
39
73
38
74
86
0
VERTEX
8
_BodyM
62
7
10
0.0
20
0.0
30
0.0
70
128
71
88
72
40
73
39
74
87
0
VERTEX
8
_BodyM
62
7
10
0.0
20
0.0
30
0.0
70
128
71
82
72
46
73
40
74
88
0
VERTEX
8
_BodyM
62
7
10
0.0
20
0.0
30
0.0
70
128
71
82
72
83
73
78
74
77
75
79
76
80
77
81
0
VERTEX
8
_BodyM
62
7
10
0.0
20
0.0
30
0.0
70
128
71
88
72
87
73
86
74
84
75
85
76
83
77
82
0
POLYLINE
8
0
62
0
66
1
10
0.0
20
0.0
30
0.0
70
64
71
10
72
9
0
VERTEX
8
0
62
0
10
-0.340000
20
-0.950000
30
0.000000
70
192
0
VERTEX
8
0
62
0
10
0.200000
20
-0.050000
30
0.000000
70
192
0
VERTEX
8
0
62
0
10
0.095000
20
-0.050000
30
0.030000
70
192
0
VERTEX
8
0
62
0
10
-0.355000
20
-0.890000
30
0.014000
70
192
0
VERTEX
8
0
62
0
10
-0.235000
20
-0.050000
30
0.000000
70
192
0
VERTEX
8
0
62
0
10
-0.505000
20
-0.890000
30
0.000000
70
192
0
VERTEX
8
0
62
0
10
-0.522000
20
-0.950000
30
0.000000
70
192
0
VERTEX
8
0
62
0
10
-0.520000
20
-0.950000
30
0.000000
70
192
0
VERTEX
8
0
62
0
10
0.095000
20
-0.050000
30
-0.030000
70
192
0
VERTEX
8
0
62
0
10
-0.355000
20
-0.890000
30
-0.014000
70
192
0
VERTEX
8
_BodyD
62
7
10
0.0
20
0.0
30
0.0
70
128
71
1
72
2
73
3
74
4
0
VERTEX
8
_BodyM
62
7
10
0.0
20
0.0
30
0.0
70
128
71
4
72
3
73
5
74
6
0
VERTEX
8
_BodyD
62
7
10
0.0
20
0.0
30
0.0
70
128
71
4
72
6
73
7
0
VERTEX
8
_BodyD
62
7
10
0.0
20
0.0
30
0.0
70
128
71
8
72
1
73
4
0
VERTEX
8
_BodyD
62
7
10
0.0
20
0.0
30
0.0
70
128
71
5
72
3
73
2
74
9
0
VERTEX
8
_BodyD
62
7
10
0.0
20
0.0
30
0.0
70
128
71
10
72
9
73
2
74
1
0
VERTEX
8
_BodyM
62
7
10
0.0
20
0.0
30
0.0
70
128
71
6
72
5
73
9
74
10
0
VERTEX
8
_BodyD
62
7
10
0.0
20
0.0
30
0.0
70
128
71
7
72
6
73
10
0
VERTEX
8
_BodyD
62
7
10
0.0
20
0.0
30
0.0
70
128
71
10
72
1
73
8
0
POLYLINE
8
0
62
0
66
1
10
0.0
20
0.0
30
0.0
70
64
71
10
72
9
0
VERTEX
8
0
62
0
10
-0.340000
20
1.000000
30
0.000000
70
192
0
VERTEX
8
0
62
0
10
0.200000
20
0.100000
30
0.000000
70
192
0
VERTEX
8
0
62
0
10
0.095000
20
0.100000
30
0.030000
70
192
0
VERTEX
8
0
62
0
10
-0.355000
20
0.940000
30
0.014000
70
192
0
VERTEX
8
0
62
0
10
-0.235000
20
0.100000
30
0.000000
70
192
0
VERTEX
8
0
62
0
10
-0.505000
20
0.940000
30
0.000000
70
192
0
VERTEX
8
0
62
0
10
-0.522000
20
1.000000
30
0.000000
70
192
0
VERTEX
8
0
62
0
10
-0.520000
20
1.000000
30
0.000000
70
192
0
VERTEX
8
0
62
0
10
0.095000
20
0.100000
30
-0.030000
70
192
0
VERTEX
8
0
62
0
10
-0.355000
20
0.940000
30
-0.014000
70
192
0
VERTEX
8
_BodyD
62
7
10
0.0
20
0.0
30
0.0
70
128
71
1
72
2
73
3
74
4
0
VERTEX
8
_BodyM
62
7
10
0.0
20
0.0
30
0.0
70
128
71
4
72
3
73
5
74
6
0
VERTEX
8
_BodyD
62
7
10
0.0
20
0.0
30
0.0
70
128
71
4
72
6
73
7
0
VERTEX
8
_BodyD
62
7
10
0.0
20
0.0
30
0.0
70
128
71
8
72
1
73
4
0
VERTEX
8
_BodyD
62
7
10
0.0
20
0.0
30
0.0
70
128
71
5
72
3
73
2
74
9
0
VERTEX
8
_BodyD
62
7
10
0.0
20
0.0
30
0.0
70
128
71
10
72
9
73
2
74
1
0
VERTEX
8
_BodyM
62
7
10
0.0
20
0.0
30
0.0
70
128
71
6
72
5
73
9
74
10
0
VERTEX
8
_BodyD
62
7
10
0.0
20
0.0
30
0.0
70
128
71
7
72
6
73
10
0
VERTEX
8
_BodyD
62
7
10
0.0
20
0.0
30
0.0
70
128
71
10
72
1
73
8
0
POLYLINE
8
0
62
0
66
1
10
0.0
20
0.0
30
0.0
70
64
71
19
72
22
0
VERTEX
8
0
62
0
10
-0.680000
20
-0.008000
30
0.380000
70
192
0
VERTEX
8
0
62
0
10
-0.706000
20
0.000000
30
0.380000
70
192
0
VERTEX
8
0
62
0
10
-0.720000
20
0.000000
30
0.410000
70
192
0
VERTEX
8
0
62
0
10
-0.680000
20
0.008000
30
0.380000
70
192
0
VERTEX
8
0
62
0
10
-0.354000
20
0.000000
30
0.040000
70
192
0
VERTEX
8
0
62
0
10
-0.500000
20
-0.020000
30
0.070000
70
192
0
VERTEX
8
0
62
0
10
-0.586000
20
0.000000
30
0.060000
70
192
0
VERTEX
8
0
62
0
10
-0.590000
20
0.000000
30
0.070000
70
192
0
VERTEX
8
0
62
0
10
-0.360000
20
-0.022000
30
0.070000
70
192
0
VERTEX
8
0
62
0
10
-0.300000
20
0.000000
30
0.000000
70
192
0
VERTEX
8
0
62
0
10
-0.260000
20
-0.016000
30
-0.010000
70
192
0
VERTEX
8
0
62
0
10
-0.640000
20
-0.010000
30
0.390000
70
192
0
VERTEX
8
0
62
0
10
-0.620000
20
0.000000
30
0.400000
70
192
0
VERTEX
8
0
62
0
10
-0.220000
20
0.000000
30
0.000000
70
192
0
VERTEX
8
0
62
0
10
-0.708000
20
0.000000
30
0.380000
70
192
0
VERTEX
8
0
62
0
10
-0.500000
20
0.020000
30
0.070000
70
192
0
VERTEX
8
0
62
0
10
-0.360000
20
0.022000
30
0.070000
70
192
0
VERTEX
8
0
62
0
10
-0.260000
20
0.016000
30
-0.010000
70
192
0
VERTEX
8
0
62
0
10
-0.640000
20
0.010000
30
0.390000
70
192
0
VERTEX
8
_BodyM
62
7
10
0.0
20
0.0
30
0.0
70
128
71
1
72
2
73
3
0
VERTEX
8
_BodyM
62
7
10
0.0
20
0.0
30
0.0
70
128
71
4
72
2
73
3
0
VERTEX
8
_BodyM
62
7
10
0.0
20
0.0
30
0.0
70
128
71
5
72
6
73
7
0
VERTEX
8
_BodyM
62
7
10
0.0
20
0.0
30
0.0
70
128
71
6
72
8
73
7
0
VERTEX
8
_BodyM
62
7
10
0.0
20
0.0
30
0.0
70
128
71
5
72
9
73
6
0
VERTEX
8
_BodyM
62
7
10
0.0
20
0.0
30
0.0
70
128
71
10
72
11
73
9
74
5
0
VERTEX
8
_BodyM
62
7
10
0.0
20
0.0
30
0.0
70
128
71
12
72
13
73
3
0
VERTEX
8
_BodyM
62
7
10
0.0
20
0.0
30
0.0
70
128
71
1
72
12
73
3
0
VERTEX
8
_BodyM
62
7
10
0.0
20
0.0
30
0.0
70
128
71
3
72
2
73
1
0
VERTEX
8
_BodyM
62
7
10
0.0
20
0.0
30
0.0
70
128
71
1
72
6
73
9
74
12
0
VERTEX
8
_BodyM
62
7
10
0.0
20
0.0
30
0.0
70
128
71
14
72
13
73
12
74
9
75
11
0
VERTEX
8
_BodyD
62
7
10
0.0
20
0.0
30
0.0
70
128
71
8
72
6
73
1
74
15
0
VERTEX
8
_BodyM
62
7
10
0.0
20
0.0
30
0.0
70
128
71
7
72
16
73
5
0
VERTEX
8
_BodyM
62
7
10
0.0
20
0.0
30
0.0
70
128
71
7
72
8
73
16
0
VERTEX
8
_BodyM
62
7
10
0.0
20
0.0
30
0.0
70
128
71
16
72
17
73
5
0
VERTEX
8
_BodyM
62
7
10
0.0
20
0.0
30
0.0
70
128
71
5
72
17
73
18
74
10
0
VERTEX
8
_BodyM
62
7
10
0.0
20
0.0
30
0.0
70
128
71
3
72
13
73
19
0
VERTEX
8
_BodyM
62
7
10
0.0
20
0.0
30
0.0
70
128
71
3
72
19
73
4
0
VERTEX
8
_BodyM
62
7
10
0.0
20
0.0
30
0.0
70
128
71
3
72
2
73
4
0
VERTEX
8
_BodyM
62
7
10
0.0
20
0.0
30
0.0
70
128
71
19
72
17
73
16
74
4
0
VERTEX
8
_BodyM
62
7
10
0.0
20
0.0
30
0.0
70
128
71
18
72
17
73
19
74
13
75
14
0
VERTEX
8
_BodyD
62
7
10
0.0
20
0.0
30
0.0
70
128
71
15
72
4
73
16
74
8
0
ENDSEC
0
EOF
